<svg width="615" height="566" viewBox="0 0 615 566" fill="none" xmlns="http://www.w3.org/2000/svg">
<path d="M260.518 254.659C256.191 253.031 237.197 237.118 235.371 233.318C228.65 234.279 220.725 237.529 214.042 238.73L214.04 238.73C214.707 240.924 216.498 245.062 217.757 247.373C221.48 253.064 224.47 257.407 229.452 262.065C231.696 264.163 236.905 268.679 239.793 269.963C252.322 277.817 266.192 280.011 280.305 280.903C296.695 281.94 312.973 280.806 329.019 277.042C329.713 276.879 330.51 277.158 331.259 277.231L331.692 278.751C325.008 281.197 318.456 284.128 311.616 285.994C294.534 290.655 277.137 289.921 259.333 287.903C258.268 287.98 257.612 288.202 256.86 288.766C256.764 289.108 257.18 289.289 257.239 289.509C257.298 289.73 256.957 290.075 257.124 289.899C258.947 290.532 260.602 291.341 262.483 292.423C263.023 292.577 263.319 292.614 263.76 292.971C279.164 298.544 294.746 302.484 311.017 301.952C349.957 303.005 388.222 275.182 400.156 259.233C412.091 243.284 418.437 220.187 415.536 220.187C412.635 220.187 410.611 219.177 402.378 222.207C394.145 225.237 392.706 224.776 377.074 235.338C361.442 245.9 355.059 252.071 343.274 254.659C333.268 257.421 323.192 260.83 313.34 262.418C300.178 264.54 286.848 263.769 273.594 259.566C272.961 259.305 272.636 259.316 272.117 259.164C268.188 258.25 264.845 256.287 260.518 254.659Z" fill="url(#paint0_linear_5_2)"/>
<path d="M255.75 145.445C254.446 133.338 260.252 114.495 261.823 111.104C263.394 107.712 264.759 103.335 269.92 95.9532L256.762 88.8829C252.748 95.5007 245.462 107.064 243.438 111.104C241.413 115.144 235.264 125.827 233.482 129.284C231.377 133.37 229.336 137.228 227.409 141.405C222.349 149.485 218.032 160.082 214.062 169.283C209.293 180.332 206.237 194.928 207.166 207.057C207.656 213.45 208.318 219.088 209.159 223.548C210 228.007 211.515 233.059 214.04 238.73L214.042 238.73C220.725 237.529 228.65 234.279 235.371 233.318C232.594 230.566 226.743 211.608 227.409 208.067C229.177 207.651 233.988 218.216 235.371 220.187C243.241 231.487 251.153 238.858 260.518 244.428C270.018 250.203 281.788 251.296 292.188 252.508C299.716 253.386 307.697 252.848 315.783 252.508C319.069 252.367 324.399 251.306 327.613 250.488L315.467 222.207C308.064 220.345 303.566 219.518 295.224 214.127C289.615 210.502 284.14 205.645 279.03 200.997C274.357 196.746 271.39 192.19 267.896 186.856C264.764 182.077 262.144 176.122 260.518 170.696C257.989 162.255 256.691 154.19 255.75 145.445Z" fill="url(#paint1_radial_5_2)"/>
<path d="M387.974 124.013C379.003 109.632 370.308 95.0777 361.255 80.7506C341.168 53.2446 331.831 38.7666 318.89 14.7687C315.808 10.052 313.027 5.50502 309.66 0C308.067 3.3292 306.799 6.41107 305.171 9.28732C302.324 14.3143 300.097 20.2247 297.248 25.2508C291.669 35.0979 285.745 44.7685 280.042 54.5418C275.097 63.0149 264.859 77.7726 264.859 77.7726C264.859 77.7726 257.859 87.0748 256.762 88.8829L269.92 95.9532C273.494 92.5293 274.147 89.519 274.147 89.519C275.064 88.9136 275.061 89.2511 274.928 90.0191C274.928 90.0191 266.402 119.059 266.884 134.334C267.283 147.006 269.451 162.782 277.005 173.726C282.739 182.033 288.86 190.611 297.248 196.957C309.32 206.089 322.182 208.981 336.723 210.087C338.967 210.258 342.796 214.127 342.796 214.127C342.796 214.127 346.1 217.931 341.174 221.631C341.174 221.631 336.724 224.57 332.674 225.237C326.699 226.222 315.467 222.207 315.467 222.207L327.613 250.488C335.419 248.504 342.802 243.54 348.566 240.551L372.148 227.258C385.495 218.14 398.636 213.178 402.378 212.103C406.12 211.028 417.696 211.097 417.696 211.097C419.72 198.977 411.075 175.59 408.547 165.381C401.756 147.383 397.349 138.179 387.974 124.013Z" fill="#038EC9"/>
<path d="M34.9924 454L0.282166 334.727H32.1387L50.1344 412.884H51.1245L71.6827 334.727H97.6572L118.215 413.058H119.205L137.259 334.727H169.058L134.406 454H106.626L85.1359 381.668H84.204L62.714 454H34.9924Z" fill="#084480"/>
<path d="M200.355 454H169.372L209.615 334.727H247.994L288.237 454H257.254L229.241 364.778H228.309L200.355 454ZM196.22 407.06H260.981V428.957H196.22V407.06Z" fill="#084480"/>
<path d="M288.842 358.139V334.727H389.653V358.139H353.487V454H325.066V358.139H288.842Z" fill="#084480"/>
<path d="M410.292 454V334.727H493.457V358.139H439.12V382.599H489.205V406.07H439.12V430.588H493.457V454H410.292Z" fill="#084480"/>
<path d="M518.071 454V334.727H567.341C576.271 334.727 583.978 336.339 590.461 339.561C596.984 342.745 602.012 347.326 605.545 353.305C609.078 359.246 610.845 366.293 610.845 374.446C610.845 382.716 609.04 389.743 605.429 395.528C601.818 401.275 596.693 405.662 590.054 408.69C583.415 411.68 575.552 413.175 566.467 413.175H535.309V390.462H561.109C565.458 390.462 569.088 389.899 572 388.773C574.951 387.608 577.183 385.861 578.697 383.531C580.211 381.163 580.969 378.134 580.969 374.446C580.969 370.758 580.211 367.71 578.697 365.303C577.183 362.857 574.951 361.032 572 359.828C569.049 358.586 565.419 357.964 561.109 357.964H546.899V454H518.071ZM585.22 399.489L614.922 454H583.473L554.353 399.489H585.22Z" fill="#084480"/>
<path d="M11.605 476.727H20.8095L52.4715 552.75H53.2385L84.9004 476.727H94.105V564H86.605V493.56H85.9232L56.4771 564H49.2328L19.7868 493.56H19.105V564H11.605V476.727Z" fill="#084480"/>
<path d="M122.236 564H113.884L145.631 476.727H154.154L185.901 564H177.548L150.19 487.082H149.594L122.236 564ZM128.244 530.548H171.54V537.707H128.244V530.548Z" fill="#084480"/>
<path d="M273.627 476.727V564H265.871L214.309 490.918H213.627V564H205.658V476.727H213.371L265.104 549.895H265.786V476.727H273.627Z" fill="#084480"/>
<path d="M301.758 564H293.406L325.153 476.727H333.675L365.423 564H357.07L329.712 487.082H329.116L301.758 564ZM307.766 530.548H351.062V537.707H307.766V530.548Z" fill="#084480"/>
<path d="M441.462 504C440.666 501.102 439.502 498.389 437.968 495.861C436.434 493.304 434.53 491.074 432.257 489.17C430.013 487.239 427.414 485.733 424.459 484.653C421.533 483.574 418.266 483.034 414.658 483.034C408.976 483.034 403.891 484.511 399.402 487.466C394.914 490.42 391.363 494.682 388.749 500.25C386.164 505.818 384.871 512.523 384.871 520.364C384.871 528.176 386.178 534.866 388.792 540.435C391.405 546.003 394.985 550.278 399.53 553.261C404.104 556.216 409.331 557.693 415.212 557.693C420.581 557.693 425.326 556.5 429.445 554.114C433.564 551.727 436.774 548.318 439.076 543.886C441.405 539.455 442.541 534.185 442.485 528.077L445.042 528.886H417.087V521.727H450.24V528.886C450.24 536.33 448.735 542.764 445.723 548.19C442.712 553.617 438.578 557.807 433.323 560.761C428.067 563.716 422.03 565.193 415.212 565.193C407.598 565.193 400.936 563.361 395.226 559.696C389.516 556.003 385.07 550.804 381.888 544.099C378.735 537.366 377.158 529.455 377.158 520.364C377.158 513.517 378.067 507.338 379.885 501.827C381.703 496.315 384.274 491.599 387.598 487.679C390.951 483.759 394.914 480.761 399.488 478.688C404.061 476.585 409.118 475.534 414.658 475.534C419.431 475.534 423.791 476.287 427.74 477.793C431.718 479.298 435.212 481.372 438.223 484.014C441.263 486.628 443.749 489.653 445.681 493.091C447.641 496.5 448.962 500.136 449.644 504H441.462Z" fill="#084480"/>
<path d="M474.824 564V476.727H525.449V483.886H482.792V516.741H522.764V523.901H482.792V556.841H526.301V564H474.824Z" fill="#084480"/>
<path d="M550.874 564V476.727H579.041C585.235 476.727 590.405 477.849 594.553 480.094C598.729 482.31 601.868 485.392 603.97 489.341C606.101 493.261 607.166 497.764 607.166 502.849C607.166 507.935 606.101 512.423 603.97 516.315C601.868 520.207 598.743 523.247 594.595 525.435C590.448 527.622 585.306 528.716 579.169 528.716H555.178V521.429H578.956C583.502 521.429 587.28 520.676 590.291 519.17C593.331 517.665 595.59 515.52 597.067 512.736C598.573 509.952 599.325 506.656 599.325 502.849C599.325 499.043 598.573 495.719 597.067 492.878C595.561 490.009 593.288 487.793 590.249 486.23C587.237 484.668 583.431 483.886 578.828 483.886H558.842V564H550.874ZM589.354 524.625L610.831 564H601.627L580.362 524.625H589.354Z" fill="#084480"/>
<defs>
<linearGradient id="paint0_linear_5_2" x1="307.738" y1="0" x2="307.738" y2="563.303" gradientUnits="userSpaceOnUse">
<stop stop-color="#064382"/>
<stop offset="1" stop-color="#064382"/>
</linearGradient>
<radialGradient id="paint1_radial_5_2" cx="0" cy="0" r="1" gradientUnits="userSpaceOnUse" gradientTransform="translate(107.808 357.793) rotate(-10.7019) scale(409.619 195.007)">
<stop stop-color="#01A6DE"/>
<stop offset="1" stop-color="#038EC9"/>
</radialGradient>
</defs>
</svg>
